<svg id="logo" data-name="logo" xmlns="http://www.w3.org/2000/svg" xmlns:xlink="http://www.w3.org/1999/xlink" width="200px" height="200px" viewBox="0 0 200 200"><defs><style>.cls-1{fill:url(#linearGradient_64);}.cls-2{fill:url(#linearGradient_214);}</style><linearGradient id="linearGradient_64" x1="90.59" y1="29.51" x2="152.75" y2="91.67" gradientUnits="userSpaceOnUse"><stop offset="0" stop-color="#28e0f4"/><stop offset="0.13" stop-color="#27d7f0"/><stop offset="0.34" stop-color="#23bde5"/><stop offset="0.57" stop-color="#1e9cd7"/><stop offset="0.87" stop-color="#0075be"/><stop offset="0.99" stop-color="#005b97"/></linearGradient><linearGradient id="linearGradient_214" x1="8.56" y1="42.61" x2="151.71" y2="185.76" gradientUnits="userSpaceOnUse"><stop offset="0" stop-color="#28e0f4"/><stop offset="0.13" stop-color="#27d7f0"/><stop offset="0.34" stop-color="#23bde5"/><stop offset="0.57" stop-color="#1e9cd7"/><stop offset="0.83" stop-color="#0075be"/><stop offset="0.99" stop-color="#004997"/></linearGradient></defs><path class="cls-1" d="M103.37,85c4.74,8.57,9.94,16.7,17.7,24.2a50.23,50.23,0,0,0,6.89-4.65c6-4.51,14.31-10.65,24.37-12.44-3.87-28.64-.18-56-37.58-86.74,5.86,7,12.35,25.61-8.22,71.73C105.32,79.8,104.29,82.42,103.37,85Z" transform="translate(0.36 -5.36)"/><path class="cls-2" d="M187.4,109.44s-5.72-25.58-31.84-21.23c-17.68,2.93-29.73,21.7-35.27,16.47C88.89,75,96,34.77,35.1,16.07c8.1,4.27,21.18,19,19.72,69.46C53.57,128.9,76.93,145.92,75,148.81c-2.33,3.56-41.49,21.51-75.4,3.16,51.71,54.49,118.76,50.56,148.45,25.58,27.08-22.79,23.64-53.82,51.91-61.49C200,116.06,193.89,108.67,187.4,109.44Z" transform="translate(0.36 -5.36)"/></svg>